<?xml version="1.0" encoding="UTF-8"?>
<!DOCTYPE svg PUBLIC "-//W3C//DTD SVG 1.1//EN" "http://www.w3.org/Graphics/SVG/1.1/DTD/svg11.dtd">
<svg xmlns="http://www.w3.org/2000/svg" version="1.1" width="512px" height="512px" style="shape-rendering:geometricPrecision; text-rendering:geometricPrecision; image-rendering:optimizeQuality; fill-rule:evenodd; clip-rule:evenodd" xmlns:xlink="http://www.w3.org/1999/xlink">
<g><path style="opacity:0.981" fill="#323232" d="M 232.5,-0.5 C 247.833,-0.5 263.167,-0.5 278.5,-0.5C 378.464,12.7267 449.631,65.0601 492,156.5C 502.133,181.03 508.633,206.363 511.5,232.5C 511.5,247.833 511.5,263.167 511.5,278.5C 498.273,378.464 445.94,449.631 354.5,492C 329.97,502.133 304.637,508.633 278.5,511.5C 263.167,511.5 247.833,511.5 232.5,511.5C 132.536,498.273 61.3692,445.94 19,354.5C 8.86747,329.97 2.36747,304.637 -0.5,278.5C -0.5,263.167 -0.5,247.833 -0.5,232.5C 12.7267,132.536 65.0601,61.3692 156.5,19C 181.03,8.86747 206.363,2.36747 232.5,-0.5 Z M 244.5,42.5 C 315.932,41.1439 375.099,67.1439 422,120.5C 473.313,187.017 483.979,259.684 454,338.5C 422.467,407.527 369.634,450.361 295.5,467C 246.742,475.844 200.409,468.844 156.5,446C 219.138,426.362 275.138,395.362 324.5,353C 350.168,329.687 371.668,303.187 389,273.5C 396.679,260.474 400.679,246.474 401,231.5C 400.646,224.957 397.812,219.791 392.5,216C 386.824,213.08 380.824,211.08 374.5,210C 362.198,208.549 349.865,208.215 337.5,209C 298.083,215.15 258.749,221.817 219.5,229C 207.262,231.406 194.929,232.406 182.5,232C 220.289,182.533 265.289,141.199 317.5,108C 332.216,99.6416 347.216,91.8083 362.5,84.5C 357.681,67.2445 346.347,60.4112 328.5,64C 313.183,67.9925 299.183,74.6592 286.5,84C 243.463,119.525 200.796,155.525 158.5,192C 145.467,203.355 134.301,216.189 125,230.5C 116.053,244.888 113.72,260.221 118,276.5C 124.154,289.325 134.32,295.658 148.5,295.5C 161.064,294.687 173.397,292.521 185.5,289C 202.064,283.59 218.397,277.59 234.5,271C 257.94,262.474 281.94,256.14 306.5,252C 317.167,251.333 327.833,251.333 338.5,252C 341.623,252.206 344.623,252.873 347.5,254C 319.257,298.909 282.924,335.909 238.5,365C 218.808,377.233 197.808,386.566 175.5,393C 156.373,395.449 137.706,399.782 119.5,406C 116.37,408.128 113.537,410.628 111,413.5C 57.7766,360.836 35.7766,297.17 45,222.5C 58.3421,149.248 98.1754,96.0817 164.5,63C 190.005,51.1245 216.672,44.2911 244.5,42.5 Z"/></g>
</svg>
